_________________________  Visit us at _________________________
  
http://p2pdl.com  ____________________________  http://p2pdl.com


You May Not Kiss The Bride 2011 BRRip 720p x264 AAC - PRiSTiNE [P2PDL]

Genre: Comedy | Romance
Plot: An unassuming pet photographer is thrown into 
serious action, adventure and romance when he's forced 
to marry a Croatian bride and spend his honeymoon at 
a remote tropical resort where she is kidnapped.
Director: Rob Hedden
Stars: Dave Annable, Katharine McPhee, Rob Schneider
Rated: Rated PG-13 for sexual material and references, some rude humor and violence

Info: 
http://www.imdb.com/title/tt1381418/

General
Complete name                  : You May Not Kiss The Bride 2011 BRRip 720p x264 AAC - PRiSTiNE.mp4
Format                         : MPEG-4
File size                      : 631 MiB
Duration                       : 1h 40mn
Overall bit rate mode          : Variable
Overall bit rate               : 881 Kbps

Video
Format                         : AVC
Format/Info                    : Advanced Video Codec
Format profile                 : High 10@L4.1
Bit rate                       : 799 Kbps
Width                          : 1 280 pixels
Height                         : 720 pixels
Display aspect ratio           : 16:9
Frame rate mode                : Constant
Frame rate                     : 24.000 fps
Bit depth                      : 10 bits
Stream size                    : 572 MiB (91%)
Writing library                : x264 core 130 r2273 b3065e6

Audio
Format                         : AAC
Bit rate mode                  : Variable
Bit rate                       : 79.9 Kbps
Channel(s)                     : 2 channels
Channel positions              : Front: L R
Sampling rate                  : 48.0 KHz / 24.0 KHz
Stream size                    : 57.2 MiB (9%)
Language                       : English

Subtitle                       : No
Source                         : 720p.BluRay.x264-LEVERAGE (Thanks)

Screenshots:
 
http://www.ultraimg.com/images/uHNJP.jpg 
http://www.ultraimg.com/images/vt5om.jpg 
http://www.ultraimg.com/images/XJNRh.jpg 
http://www.ultraimg.com/images/gQzAy.jpg 
http://www.ultraimg.com/images/3xnSX.jpg 
http://www.ultraimg.com/images/Vt5xk.jpg 
http://www.ultraimg.com/images/JUIP6.jpg


----------------------------------------------------------------------------------------------------


Encoded using revolutionary 10bit encoding, which enables us to provide you more crispier 
and sharper images at small sizes, just make sure you follow our instructions without a fault.
Recommend to you to use latest version of VLC player. Install K-Lite Codec Pack or shark007 codecs
in case of any kind of problem in playback (For non-VLC Media Player users). Alternatively, install
Core AVC codecs, the fastest decoder that there is coupled with Community Center Codec Pack and play
on Windows Media Player Classic. Check sample to be sure.
Enjoy!

Encoder Notes:Looking For Early Access To Anything You Can Provide DVDScr, R5, DVDR, BluRay, Direct
Audio, Music Releases and Seedboxes. We require dedicated servers, so as to do more 
and fast releases of movies.
If You Got anything to offer please contact us at "prg@hush.com".

Face book Fan Page:   
http://www.fb.me/p2pdl